# xmcd
# Track frame offsets:
# 150
# 18285
# 34182
# 50811
# 64485
# 85448
# 98218
# 122029
# 137865
# 156254
#
# Disc length: 2329 seconds
# Revision: 0
# Processed by: cddbd v1.5.1PL0 Copyright (c) Steve Scherf et al.
# Submitted via: VisiTrax 2.9.10.220 - For more info visit www.synapsa.com
#
DISCID=8f09170a
DTITLE=GILBERTO SANTA ROSA - SOLO BOLEROS
DYEAR=2003
DGENRE=BOLEROS
TTITLE0=POR MÁS QUE INTENTO
TTITLE1=UN AMOR PARA LA HISTORIA
TTITLE2=CÓMO HE PODIDO ESTAR SIN TI
TTITLE3=SERÁ
TTITLE4=MENTIRA
TTITLE5=SE PUEDE
TTITLE6=NO PENSÉ ENAMORARME OTRA VEZ
TTITLE7=PUEDEN DECIR
TTITLE8=SI TE DIJERON
TTITLE9=QUE ALGUIEN ME AYUDE
EXTD=
EXTT0=
EXTT1=
EXTT2=
EXTT3=
EXTT4=
EXTT5=
EXTT6=
EXTT7=
EXTT8=
EXTT9=
PLAYORDER=
